HIERARCHY
ROOT ui
{
	 OFFSET 0 0 0
	 CHANNELS 3 XPosition YPosition Z Position
	 EndSite
	 {
	 OFFSET 0 -1 0
	 }
}
ROOT li
{
	 OFFSET 0 0 0
	 CHANNELS 3 XPosition YPosition Z Position
	 EndSite
	 {
	 OFFSET 0 -1 0
	 }
}
ROOT ul
{
	 OFFSET 0 0 0
	 CHANNELS 3 XPosition YPosition Z Position
	 EndSite
	 {
	 OFFSET 0 -1 0
	 }
}
ROOT ll
{
	 OFFSET 0 0 0
	 CHANNELS 3 XPosition YPosition Z Position
	 EndSite
	 {
	 OFFSET 0 -1 0
	 }
}
ROOT tt
{
	 OFFSET 0 0 0
	 CHANNELS 3 XPosition YPosition Z Position
	 EndSite
	 {
	 OFFSET 0 -1 0
	 }
}
ROOT tb
{
	 OFFSET 0 0 0
	 CHANNELS 3 XPosition YPosition Z Position
	 EndSite
	 {
	 OFFSET 0 -1 0
	 }
}
ROOT td
{
	 OFFSET 0 0 0
	 CHANNELS 3 XPosition YPosition Z Position
	 EndSite
	 {
	 OFFSET 0 -1 0
	 }
}
ROOT v
{
	 OFFSET 0 0 0
	 CHANNELS 3 XPosition YPosition Z Position
	 EndSite
	 {
	 OFFSET 0 -1 0
	 }
}
ROOT bn
{
	 OFFSET 0 0 0
	 CHANNELS 3 XPosition YPosition Z Position
	 EndSite
	 {
	 OFFSET 0 -1 0
	 }
}
MOTION
Frames: 30
Frame Time: 0.002
0.021196619033813476	0.0015163110494613647	0		0.41540802001953125	-2.357655029296875	0		-1.050845458984375	0.08407359313964843	0		-0.5573724975585937	-2.492369873046875	0		1.68052587890625	-0.37848809814453127	0		3.220545166015625	0.16708953857421874	0		4.4696083984375	0.24330738830566406	0		5.97533251953125	0.44776416015625	0		-0.32156021118164063	5.877318359375	0		
-0.050570140838623046	-6.643980145454407E-4	0		0.36861160278320315	-2.363149658203125	0		-1.0465302734375	0.08792736053466797	0		-0.5492232666015625	-2.502563232421875	0		1.71942333984375	-0.40806207275390627	0		3.232593994140625	0.14986244201660157	0		4.4666328125	0.224275390625	0		5.98527197265625	0.4023699645996094	0		-0.2872471923828125	5.8827958984375	0		
0.023613250732421875	-0.006696544170379639	0		0.3958521728515625	-2.365585693359375	0		-1.11722216796875	0.09271916198730469	0		-0.5710031127929688	-2.506386474609375	0		1.703553466796875	-0.417945556640625	0		3.25260400390625	0.13053501892089844	0		4.475693359375	0.20909469604492187	0		5.974140625	0.42164810180664064	0		-0.3059688720703125	5.88793603515625	0		
0.021948076248168944	0.0012250839471817016	0		0.34622412109375	-2.35605517578125	0		-1.1088890380859375	0.10050458526611328	0		-0.5416235961914062	-2.496861328125	0		1.7129415283203124	-0.4061483459472656	0		3.2399384765625	0.138623779296875	0		4.47592529296875	0.20903076171875	0		5.98927490234375	0.41937286376953126	0		-0.33985986328125	5.882259765625	0		
0.02215599250793457	0.0011184769868850708	0		0.375455322265625	-2.35652392578125	0		-1.1086822509765626	0.10038571166992187	0		-0.6112821655273437	-2.488092041015625	0		1.6972181396484376	-0.40103524780273436	0		3.248980224609375	0.12543961334228515	0		4.4720556640625	0.20302337646484375	0		5.98454833984375	0.4419426574707031	0		-0.30564276123046874	5.8877197265625	0		
-0.05465330123901367	0.002980184078216553	0		0.36473406982421874	-2.350489501953125	0		-1.0325301513671874	0.09830574798583984	0		-0.5520702514648438	-2.48795166015625	0		1.72230517578125	-0.40843624877929685	0		3.273085693359375	0.12007099914550781	0		4.46898583984375	0.18401168823242187	0		5.989546875	0.41924893188476564	0		-0.27247344970703125	5.89319140625	0		
0.019415653228759766	-0.0020595810413360596	0		0.3549952392578125	-2.342467041015625	0		-1.120260986328125	0.1102887191772461	0		-0.589905517578125	-2.48758984375	0		1.68955224609375	-0.39910464477539065	0		3.2380859375	0.11045203399658203	0		4.4691083984375	0.18396914672851564	0		5.98963623046875	0.4192158203125	0		-0.2875594787597656	5.8832685546875	0		
-0.057495136260986325	-1.9815999269485473E-4	0		0.3718634338378906	-2.36177978515625	0		-1.1201922607421875	0.11016427612304687	0		-0.5538353881835938	-2.491157958984375	0		1.7075775146484375	-0.40340966796875	0		3.234079833984375	0.1044485855102539	0		4.4700126953125	0.17092324829101563	0		5.97471875	0.42138720703125	0		-0.3055321044921875	5.88738330078125	0		
0.02253622817993164	6.938170194625854E-4	0		0.3510430297851562	-2.35161376953125	0		-1.13316796875	0.1112054214477539	0		-0.62164990234375	-2.480417724609375	0		1.7285826416015626	-0.40474725341796874	0		3.274886474609375	0.08788700866699219	0		4.4729091796875	0.16185887145996095	0		5.9896962890625	0.4191999206542969	0		-0.33870428466796876	5.88068994140625	0		
-0.050439697265625	0.00651061487197876	0		0.39913516235351565	-2.34430810546875	0		-1.0901673583984375	0.11454895782470703	0		-0.5456705932617187	-2.482478515625	0		1.73159521484375	-0.40085382080078125	0		3.24804345703125	0.10418171691894532	0		4.46997509765625	0.17087371826171874	0		5.98966552734375	0.41920849609375	0		-0.3549725341796875	5.87078759765625	0		
0.022395816802978516	5.045689940452576E-4	0		0.3690551452636719	-2.346017822265625	0		-1.1021392822265625	0.12458837127685547	0		-0.55180029296875	-2.488504150390625	0		1.7345555419921874	-0.3969550476074219	0		3.240570556640625	0.0742333755493164	0		4.45663916015625	0.15201980590820313	0		5.9895966796875	0.4192226867675781	0		-0.2880081787109375	5.88285009765625	0		
-0.0577619743347168	-5.804359912872315E-4	0		0.3839891967773438	-2.34328515625	0		-1.1022802734375	0.12448560333251953	0		-0.5539376220703125	-2.491572998046875	0		1.7005504150390625	-0.38658914184570314	0		3.24535498046875	0.06813663482666016	0		4.4613974609375	0.14394227600097656	0		5.9858427734375	0.4020486145019531	0		-0.33644815063476563	5.866361328125	0		
0.022087581634521486	3.4072399139404295E-4	0		0.35689349365234374	-2.34002197265625	0		-1.0884149169921875	0.12721559906005858	0		-0.590030517578125	-2.488210693359375	0		1.715273193359375	-0.39583013916015625	0		3.264095947265625	0.06086791610717773	0		4.4612265625	0.14392782592773437	0		5.9893779296875	0.41925424194335936	0		-0.3225660095214844	5.87710205078125	0		
0.026853776931762694	-0.0037936339378356935	0		0.37958889770507814	-2.352375732421875	0		-1.1284847412109376	0.13662705993652344	0		-0.5881569213867187	-2.486316162109375	0		1.7342181396484375	-0.3861181945800781	0		3.251261962890625	0.08899768829345703	0		4.4549541015625	0.1369885711669922	0		5.98924755859375	0.419264892578125	0		-0.3417620544433594	5.88226171875	0		
0.02577064323425293	0.004152466773986816	0		0.3356977233886719	-2.330890869140625	0		-1.1236322021484375	0.1394856872558594	0		-0.5482898559570313	-2.484887451171875	0		1.737089111328125	-0.3822022705078125	0		3.24972900390625	0.06098312377929688	0		4.4616943359375	0.13088624572753907	0		5.9854619140625	0.40207864379882813	0		-0.323075439453125	5.87695556640625	0		
0.021548709869384765	1.4354400336742402E-4	0		0.38541937255859376	-2.341568603515625	0		-1.0966834716796876	0.14907862854003906	0		-0.5545250244140625	-2.491876708984375	0		1.745894775390625	-0.3843567504882813	0		3.272629150390625	0.06666825866699219	0		4.450521484375	0.1310068664550781	0		5.98533935546875	0.40207687377929685	0		-0.2892322998046875	5.88246923828125	0		
0.02139067840576172	9.122099727392197E-5	0		0.3583191833496094	-2.338282470703125	0		-1.0968427734375	0.1490175018310547	0		-0.5655505981445312	-2.48279736328125	0		1.749789306640625	-0.38044558715820315	0		3.241423095703125	0.06302757263183593	0		4.457287109375	0.12490274047851563	0		5.97669482421875	0.40751641845703124	0		-0.3254836120605469	5.87886279296875	0		
0.018208074569702148	-0.0029169399738311766	0		0.35818765258789065	-2.338326171875	0		-1.135986083984375	0.14945016479492187	0		-0.6016411743164063	-2.479399169921875	0		1.7557451171875	-0.37255618286132813	0		3.236352294921875	0.06906287384033204	0		4.45512841796875	0.12390855407714843	0		5.985123046875	0.4020519714355469	0		-0.32368936157226563	5.8767900390625	0		
-0.0558753662109375	0.0019636629819869997	0		0.34607138061523435	-2.33721484375	0		-1.1700732421875	0.153828857421875	0		-0.5528859252929688	-2.48904931640625	0		1.77760595703125	-0.37286203002929685	0		3.2860849609375	0.058415550231933594	0		4.4590634765625	0.12983676147460937	0		5.992869140625	0.4017889709472656	0		-0.3427879333496094	5.8819853515625	0		
0.02995457458496094	-0.0011379729509353638	0		0.3660350341796875	-2.329495849609375	0		-1.1231163330078124	0.16120924377441406	0		-0.6317900390625	-2.47010205078125	0		1.78762890625	-0.3600166320800781	0		3.271196044921875	0.07857394409179687	0		4.4548505859375	0.1238625717163086	0		5.98004833984375	0.42462728881835937	0		-0.276768310546875	5.895130859375	0		
0.02082484245300293	-5.188700184226036E-5	0		0.3549666748046875	-2.323385498046875	0		-1.0974102783203126	0.14886166381835939	0		-0.5660881958007813	-2.482947265625	0		1.7874859619140624	-0.36004306030273436	0		3.24391845703125	0.06788345336914063	0		4.46771923828125	0.12467339324951172	0		5.98413720703125	0.4071509399414063	0		-0.32611639404296877	5.8787158203125	0		
-0.05630863952636719	0.0018867659568786621	0		0.38864401245117186	-2.336826904296875	0		-1.1484334716796876	0.15947946166992188	0		-0.604231689453125	-2.481491943359375	0		1.790382568359375	-0.3561044006347656	0		3.24782861328125	0.07280550384521485	0		4.45455615234375	0.12380386352539062	0		5.98402880859375	0.4070891418457031	0		-0.32625173950195313	5.87869775390625	0		
-0.05950980377197266	-0.0010869539976119996	0		0.36150662231445313	-2.333505126953125	0		-1.109599609375	0.15898895263671875	0		-0.5704740600585938	-2.4869228515625	0		1.8062899169921875	-0.35032522583007814	0		3.275662841796875	0.07242793273925781	0		4.46439208984375	0.12364366149902344	0		5.9790341796875	0.42965103149414063	0		-0.361430908203125	5.8751240234375	0		
0.02033632278442383	-8.693999797105789E-5	0		0.36333981323242187	-2.33153759765625	0		-1.143718505859375	0.16341647338867188	0		-0.638537109375	-2.476076904296875	0		1.82218798828125	-0.34454400634765625	0		3.2598779296875	0.1035936279296875	0		4.45829541015625	0.12967713928222657	0		5.97891162109375	0.4295582580566406	0		-0.3454324340820312	5.88492236328125	0		
0.02016621780395508	-8.44310000538826E-5	0		0.365169677734375	-2.329563720703125	0		-1.1058897705078126	0.1629579315185547	0		-0.5688386840820312	-2.484938720703125	0		1.829125732421875	-0.3356485900878906	0		3.28159521484375	0.09428826141357421	0		4.47812548828125	0.12938323974609375	0		5.985921875	0.42923611450195315	0		-0.3114802551269531	5.8895048828125	0		
0.02001063537597656	-7.473500072956086E-5	0		0.3629595642089844	-2.331533203125	0		-1.1440404052734374	0.1634559326171875	0		-0.57105078125	-2.486896484375	0		1.84503955078125	-0.32986199951171874	0		3.2748154296875	0.12434129333496094	0		4.47797119140625	0.12933602905273436	0		5.97850048828125	0.39473800659179686	0		-0.2936119384765625	5.88529443359375	0		
0.011003534317016601	0.010053697586059571	0		0.3808666076660156	-2.32574658203125	0		-1.116160400390625	0.1641399383544922	0		-0.5861683959960937	-2.48268408203125	0		1.7368480224609375	-0.333522705078125	0		3.27062255859375	0.11936126708984375	0		4.47392822265625	0.1363376159667969	0		5.97840576171875	0.39461593627929686	0		-0.3267191162109375	5.880728515625	0		
0.01673493003845215	-0.00299680495262146	0		0.3356772766113281	-2.329166259765625	0		-1.155260498046875	0.16466899108886718	0		-0.61341162109375	-2.49031298828125	0		1.6879783935546875	-0.31391555786132813	0		3.26464404296875	0.12940707397460938	0		4.481798828125	0.13419015502929688	0		5.97832958984375	0.3944902648925781	0		-0.3267561950683594	5.87875732421875	0		
0.019693355560302734	-6.043999921530485E-6	0		0.3665938415527344	-2.32653125	0		-1.146237060546875	0.17260423278808593	0		-0.5755484619140625	-2.491749267578125	0		1.69194384765625	-0.30996591186523437	0		3.292828125	0.15002801513671876	0		4.48663427734375	0.12708047485351562	0		5.9890595703125	0.41133544921875	0		-0.34369586181640627	5.88200439453125	0		
0.02368710136413574	0.003975366115570068	0		0.370546142578125	-2.32255615234375	0		-1.1471771240234374	0.181668701171875	0		-0.5736239624023437	-2.48973193359375	0		1.7442166748046875	-0.2836178894042969	0		3.28886279296875	0.15705119323730468	0		4.501830078125	0.1468431701660156	0		5.98344873046875	0.4373258972167969	0		-0.2926135864257812	5.88440283203125	0		
